# xmcd
#
# Track frame offsets:
# 150
# 17409
# 34899
# 47231
# 64155
# 81051
# 92824
# 104172
# 115688
# 132192
# 146930
# 166251
# 181885
# 197248
# 219764
# 244486
# 259486
# 279371
# 290488
# 309591
#
# Disc length: 4374 seconds
#
# Revision: 1
# Processed by: cddbd v1.5.1PL0 Copyright (c) Steve Scherf et al.
# Submitted via: CedeCatalogueitor 2.6.0.5 http://personales.ya.com/cdcatalogueitor
#
DISCID=2e111414
DTITLE=Luisa Ortega - El Disco De Oro. Vol. 9
DYEAR=2000
DGENRE=Canción Española
TTITLE0=Amante De Abril Y Mayo
TTITLE1=¡ay, Mi Consuelo!
TTITLE2=Color Moreno
TTITLE3=Como Castigo De Dios
TTITLE4=Compañero
TTITLE5=Coplas De La Cigarrera
TTITLE6=Coplas Del Barquero
TTITLE7=Curro Mio
TTITLE8=Duermete Lunita Clara
TTITLE9=La Copla Nueva
TTITLE10=La Soledad De Tus Ojos
TTITLE11=La Sonaja
TTITLE12=Limosna De Amores
TTITLE13=Me Embrujaste
TTITLE14=No Puedo Vivir Contigo
TTITLE15=Pan Alcalá
TTITLE16=Pozo De Muerte
TTITLE17=Que Si Te Quiero, Juralo
TTITLE18=Romance De Valentia
TTITLE19=Ven Conmigo A Ca' Sirverio
EXTD=
EXTT0=
EXTT1=
EXTT2=
EXTT3=
EXTT4=
EXTT5=
EXTT6=
EXTT7=
EXTT8=
EXTT9=
EXTT10=
EXTT11=
EXTT12=
EXTT13=
EXTT14=
EXTT15=
EXTT16=
EXTT17=
EXTT18=
EXTT19=
PLAYORDER=
